<mxfile host="app.diagrams.net" modified="2021-01-13T09:10:37.809Z" agent="5.0 (Windows NT 6.1; Win64; x64) AppleWebKit/537.36 (KHTML, like Gecko) Chrome/86.0.4240.193 Safari/537.36" etag="7Elm-Iog9h79Z4yxxq58" version="14.1.9" type="github">
  <diagram id="Qn42R70UaVbtTuVgpsIn" name="Page-1">
    <mxGraphModel dx="1071" dy="455" grid="0" gridSize="10" guides="1" tooltips="1" connect="1" arrows="1" fold="1" page="1" pageScale="1" pageWidth="850" pageHeight="1100" math="1" shadow="0">
      <root>
        <mxCell id="0" />
        <mxCell id="1" parent="0" />
        <mxCell id="oPkie0pvq-3ybUJgwecn-9" style="edgeStyle=orthogonalEdgeStyle;rounded=0;orthogonalLoop=1;jettySize=auto;html=1;exitX=1;exitY=0.5;exitDx=0;exitDy=0;fontSize=16;fontFamily=Times New Roman;" parent="1" source="oPkie0pvq-3ybUJgwecn-1" edge="1">
          <mxGeometry relative="1" as="geometry">
            <mxPoint x="320" y="194.9999999999999" as="targetPoint" />
          </mxGeometry>
        </mxCell>
        <mxCell id="oPkie0pvq-3ybUJgwecn-1" value="$$({{B}_{i,k}},{{B}}_{e,k}^{-})$$" style="rounded=0;whiteSpace=wrap;html=1;fontSize=12;fontFamily=Times New Roman;" parent="1" vertex="1">
          <mxGeometry x="210" y="180" width="80" height="30" as="geometry" />
        </mxCell>
        <mxCell id="oPkie0pvq-3ybUJgwecn-2" value="A Match" style="text;html=1;strokeColor=none;fillColor=none;align=center;verticalAlign=middle;whiteSpace=wrap;rounded=0;fontSize=16;fontFamily=Times New Roman;" parent="1" vertex="1">
          <mxGeometry x="212.5" y="160" width="75" height="20" as="geometry" />
        </mxCell>
        <mxCell id="oPkie0pvq-3ybUJgwecn-21" style="edgeStyle=orthogonalEdgeStyle;rounded=0;orthogonalLoop=1;jettySize=auto;html=1;entryX=0;entryY=0.5;entryDx=0;entryDy=0;fontSize=16;fontFamily=Times New Roman;exitX=1;exitY=0.5;exitDx=0;exitDy=0;" parent="1" source="oPkie0pvq-3ybUJgwecn-149" target="oPkie0pvq-3ybUJgwecn-14" edge="1">
          <mxGeometry relative="1" as="geometry">
            <mxPoint x="520" y="200" as="sourcePoint" />
          </mxGeometry>
        </mxCell>
        <mxCell id="oPkie0pvq-3ybUJgwecn-13" value="Yes" style="text;html=1;strokeColor=none;fillColor=none;align=center;verticalAlign=middle;whiteSpace=wrap;rounded=0;fontSize=16;fontFamily=Times New Roman;" parent="1" vertex="1">
          <mxGeometry x="389.75" y="170" width="40" height="20" as="geometry" />
        </mxCell>
        <mxCell id="oPkie0pvq-3ybUJgwecn-14" value="Update Trackers" style="rounded=1;whiteSpace=wrap;html=1;fontSize=16;fontFamily=Times New Roman;" parent="1" vertex="1">
          <mxGeometry x="570" y="170" width="90.37" height="50" as="geometry" />
        </mxCell>
        <mxCell id="oPkie0pvq-3ybUJgwecn-17" value="Refinement" style="rounded=1;whiteSpace=wrap;html=1;fontSize=16;fontFamily=Times New Roman;" parent="1" vertex="1">
          <mxGeometry x="210" y="379" width="90" height="50" as="geometry" />
        </mxCell>
        <mxCell id="oPkie0pvq-3ybUJgwecn-19" value="No" style="text;html=1;strokeColor=none;fillColor=none;align=center;verticalAlign=middle;whiteSpace=wrap;rounded=0;fontSize=16;fontFamily=Times New Roman;" parent="1" vertex="1">
          <mxGeometry x="327" y="216" width="40" height="20" as="geometry" />
        </mxCell>
        <mxCell id="oPkie0pvq-3ybUJgwecn-22" value="" style="shape=curlyBracket;whiteSpace=wrap;html=1;rounded=1;size=0.5;fontSize=16;fontFamily=Times New Roman;" parent="1" vertex="1">
          <mxGeometry x="300" y="274" width="20" height="261" as="geometry" />
        </mxCell>
        <mxCell id="oPkie0pvq-3ybUJgwecn-29" value="Case 1" style="rhombus;whiteSpace=wrap;html=1;fontSize=16;fontFamily=Times New Roman;" parent="1" vertex="1">
          <mxGeometry x="320.75" y="254" width="87" height="40" as="geometry" />
        </mxCell>
        <mxCell id="oPkie0pvq-3ybUJgwecn-30" value="$$T_{i,e} \leq {R}_{e,k}&amp;nbsp; &amp;nbsp; &amp;lt; T_{a}&#39;$$" style="text;html=1;strokeColor=none;fillColor=none;align=center;verticalAlign=middle;whiteSpace=wrap;rounded=0;fontSize=12;fontFamily=Times New Roman;" parent="1" vertex="1">
          <mxGeometry x="305" y="309" width="118.5" height="20" as="geometry" />
        </mxCell>
        <mxCell id="oPkie0pvq-3ybUJgwecn-31" value="&lt;span style=&quot;color: rgb(0, 0, 0); font-size: 12px; font-style: normal; font-weight: 400; letter-spacing: normal; text-align: center; text-indent: 0px; text-transform: none; word-spacing: 0px; background-color: rgb(248, 249, 250); display: inline; float: none;&quot;&gt;$$T_{a}&amp;lt;{R}_{m,k}\leq 1$$&lt;/span&gt;" style="text;html=1;strokeColor=none;fillColor=none;align=center;verticalAlign=middle;whiteSpace=wrap;rounded=0;fontSize=12;fontFamily=Times New Roman;" parent="1" vertex="1">
          <mxGeometry x="314.25" y="294" width="100" height="20" as="geometry" />
        </mxCell>
        <mxCell id="oPkie0pvq-3ybUJgwecn-40" value="$$0 \leq {R}_{e,k} &amp;lt; T_{i,e}$$" style="text;html=1;strokeColor=none;fillColor=none;align=center;verticalAlign=middle;whiteSpace=wrap;rounded=0;fontSize=12;fontFamily=Times New Roman;" parent="1" vertex="1">
          <mxGeometry x="314.25" y="396" width="100" height="20" as="geometry" />
        </mxCell>
        <mxCell id="oPkie0pvq-3ybUJgwecn-41" value="&#xa;&#xa;&lt;span style=&quot;color: rgb(0, 0, 0); font-size: 12px; font-style: normal; font-weight: 400; letter-spacing: normal; text-align: center; text-indent: 0px; text-transform: none; word-spacing: 0px; background-color: rgb(248, 249, 250); display: inline; float: none;&quot;&gt;$$T_{a}&amp;lt;{R}_{m,k} \leq 1$$&lt;/span&gt;&#xa;&#xa;" style="text;html=1;strokeColor=none;fillColor=none;align=center;verticalAlign=middle;whiteSpace=wrap;rounded=0;fontSize=12;fontFamily=Times New Roman;" parent="1" vertex="1">
          <mxGeometry x="314.25" y="380" width="100" height="20" as="geometry" />
        </mxCell>
        <mxCell id="oPkie0pvq-3ybUJgwecn-43" value="$$T_{a}&amp;lt;{R}_{e,k} \leq 1$$" style="text;html=1;strokeColor=none;fillColor=none;align=center;verticalAlign=middle;whiteSpace=wrap;rounded=0;fontSize=12;fontFamily=Times New Roman;" parent="1" vertex="1">
          <mxGeometry x="299.25" y="485" width="130" height="21" as="geometry" />
        </mxCell>
        <mxCell id="oPkie0pvq-3ybUJgwecn-44" value="$$T_{i,e} \leq {R}_{m,k} &amp;lt; T_{a}^{\prime}$$" style="text;html=1;strokeColor=none;fillColor=none;align=center;verticalAlign=middle;whiteSpace=wrap;rounded=0;fontSize=12;fontFamily=Times New Roman;" parent="1" vertex="1">
          <mxGeometry x="289.25" y="468" width="150" height="22" as="geometry" />
        </mxCell>
        <mxCell id="oPkie0pvq-3ybUJgwecn-147" style="edgeStyle=orthogonalEdgeStyle;rounded=0;orthogonalLoop=1;jettySize=auto;html=1;exitX=1;exitY=0.5;exitDx=0;exitDy=0;entryX=0;entryY=0.5;entryDx=0;entryDy=0;fontFamily=Times New Roman;fontSize=13;" parent="1" target="oPkie0pvq-3ybUJgwecn-140" edge="1">
          <mxGeometry relative="1" as="geometry">
            <mxPoint x="406.25" y="535" as="sourcePoint" />
          </mxGeometry>
        </mxCell>
        <mxCell id="oPkie0pvq-3ybUJgwecn-45" value="Other" style="rhombus;whiteSpace=wrap;html=1;fontSize=16;fontFamily=Times New Roman;" parent="1" vertex="1">
          <mxGeometry x="319.25" y="515" width="87" height="40" as="geometry" />
        </mxCell>
        <mxCell id="oPkie0pvq-3ybUJgwecn-49" value="" style="shape=curlyBracket;whiteSpace=wrap;html=1;rounded=1;size=0.5;fontSize=16;fontFamily=Times New Roman;" parent="1" vertex="1">
          <mxGeometry x="300" y="360" width="20" height="88" as="geometry" />
        </mxCell>
        <mxCell id="oPkie0pvq-3ybUJgwecn-56" value="&lt;p style=&quot;font-size: 12px;&quot;&gt;&lt;font style=&quot;font-size: 12px; line-height: 320%;&quot;&gt;Leaving screen&lt;/font&gt;&lt;/p&gt;" style="text;html=1;strokeColor=none;fillColor=none;align=center;verticalAlign=middle;whiteSpace=wrap;rounded=0;fontSize=12;horizontal=1;fontFamily=Times New Roman;" parent="1" vertex="1">
          <mxGeometry x="423.5" y="220" width="100" height="20" as="geometry" />
        </mxCell>
        <mxCell id="oPkie0pvq-3ybUJgwecn-60" value="&lt;p style=&quot;font-size: 12px&quot;&gt;&lt;font style=&quot;font-size: 12px ; line-height: 320%&quot;&gt;Z-axis motion&lt;/font&gt;&lt;/p&gt;" style="text;html=1;strokeColor=none;fillColor=none;align=center;verticalAlign=middle;whiteSpace=wrap;rounded=0;fontSize=12;horizontal=1;fontFamily=Times New Roman;" parent="1" vertex="1">
          <mxGeometry x="422.75" y="234" width="100" height="20" as="geometry" />
        </mxCell>
        <mxCell id="oPkie0pvq-3ybUJgwecn-161" style="edgeStyle=orthogonalEdgeStyle;rounded=0;orthogonalLoop=1;jettySize=auto;html=1;exitX=1;exitY=0.5;exitDx=0;exitDy=0;fontFamily=Times New Roman;fontSize=13;" parent="1" source="oPkie0pvq-3ybUJgwecn-64" edge="1">
          <mxGeometry relative="1" as="geometry">
            <mxPoint x="680" y="254.1428571428571" as="targetPoint" />
          </mxGeometry>
        </mxCell>
        <mxCell id="oPkie0pvq-3ybUJgwecn-64" value="$${{B}}_{r,k} = {{B}_{i,k}}$$" style="rounded=0;whiteSpace=wrap;html=1;fontSize=12;fontFamily=Times New Roman;" parent="1" vertex="1">
          <mxGeometry x="570" y="240" width="90.37" height="28" as="geometry" />
        </mxCell>
        <mxCell id="oPkie0pvq-3ybUJgwecn-160" style="edgeStyle=orthogonalEdgeStyle;rounded=0;orthogonalLoop=1;jettySize=auto;html=1;exitX=1;exitY=0.5;exitDx=0;exitDy=0;fontFamily=Times New Roman;fontSize=13;" parent="1" source="oPkie0pvq-3ybUJgwecn-73" edge="1">
          <mxGeometry relative="1" as="geometry">
            <mxPoint x="680" y="294.1428571428571" as="targetPoint" />
          </mxGeometry>
        </mxCell>
        <mxCell id="oPkie0pvq-3ybUJgwecn-73" value="$${{B}}_{r,k}= 0.5\otimes&amp;nbsp; ({{B}}_{o,k} \oplus {{B}}_{e,k}^{-} )$$" style="rounded=0;whiteSpace=wrap;html=1;fontSize=12;fontFamily=Times New Roman;" parent="1" vertex="1">
          <mxGeometry x="504.87" y="280" width="155.5" height="28" as="geometry" />
        </mxCell>
        <mxCell id="oPkie0pvq-3ybUJgwecn-86" value="" style="shape=curlyBracket;whiteSpace=wrap;html=1;rounded=1;size=0.5;fontSize=16;fontFamily=Times New Roman;" parent="1" vertex="1">
          <mxGeometry x="407.75" y="254" width="22" height="40" as="geometry" />
        </mxCell>
        <mxCell id="oPkie0pvq-3ybUJgwecn-88" value="" style="endArrow=classic;html=1;fontSize=12;exitX=0.911;exitY=0.001;exitDx=0;exitDy=0;exitPerimeter=0;entryX=-0.014;entryY=0.504;entryDx=0;entryDy=0;entryPerimeter=0;fontFamily=Times New Roman;" parent="1" source="oPkie0pvq-3ybUJgwecn-86" target="oPkie0pvq-3ybUJgwecn-64" edge="1">
          <mxGeometry width="50" height="50" relative="1" as="geometry">
            <mxPoint x="473.5" y="248" as="sourcePoint" />
            <mxPoint x="523.5" y="198" as="targetPoint" />
          </mxGeometry>
        </mxCell>
        <mxCell id="oPkie0pvq-3ybUJgwecn-89" value="" style="endArrow=classic;html=1;fontSize=12;entryX=0;entryY=0.5;entryDx=0;entryDy=0;fontFamily=Times New Roman;" parent="1" target="oPkie0pvq-3ybUJgwecn-73" edge="1">
          <mxGeometry width="50" height="50" relative="1" as="geometry">
            <mxPoint x="429.75" y="294" as="sourcePoint" />
            <mxPoint x="518.5" y="255" as="targetPoint" />
          </mxGeometry>
        </mxCell>
        <mxCell id="oPkie0pvq-3ybUJgwecn-90" value="&lt;p style=&quot;font-size: 12px&quot;&gt;&lt;font style=&quot;font-size: 12px ; line-height: 320%&quot;&gt;Other&lt;/font&gt;&lt;/p&gt;" style="text;html=1;strokeColor=none;fillColor=none;align=center;verticalAlign=middle;whiteSpace=wrap;rounded=0;fontSize=12;horizontal=1;fontFamily=Times New Roman;" parent="1" vertex="1">
          <mxGeometry x="429.75" y="274" width="44" height="20" as="geometry" />
        </mxCell>
        <mxCell id="oPkie0pvq-3ybUJgwecn-158" style="edgeStyle=orthogonalEdgeStyle;rounded=0;orthogonalLoop=1;jettySize=auto;html=1;exitX=1;exitY=0.5;exitDx=0;exitDy=0;fontFamily=Times New Roman;fontSize=13;" parent="1" source="oPkie0pvq-3ybUJgwecn-94" edge="1">
          <mxGeometry relative="1" as="geometry">
            <mxPoint x="680" y="379.8571428571429" as="targetPoint" />
          </mxGeometry>
        </mxCell>
        <mxCell id="oPkie0pvq-3ybUJgwecn-94" value="$${{B}}_{r,k} =&amp;nbsp; {{B}}_{t,k-1}$$" style="rounded=0;whiteSpace=wrap;html=1;fontSize=12;fontFamily=Times New Roman;" parent="1" vertex="1">
          <mxGeometry x="570" y="366" width="90.75" height="28" as="geometry" />
        </mxCell>
        <mxCell id="oPkie0pvq-3ybUJgwecn-109" value="&lt;p style=&quot;font-size: 12px;&quot;&gt;&lt;font style=&quot;font-size: 12px; line-height: 320%;&quot;&gt;Leaving screen&lt;/font&gt;&lt;/p&gt;" style="text;html=1;strokeColor=none;fillColor=none;align=center;verticalAlign=middle;whiteSpace=wrap;rounded=0;fontSize=12;horizontal=1;fontFamily=Times New Roman;" parent="1" vertex="1">
          <mxGeometry x="423.88" y="320" width="100" height="20" as="geometry" />
        </mxCell>
        <mxCell id="oPkie0pvq-3ybUJgwecn-159" style="edgeStyle=orthogonalEdgeStyle;rounded=0;orthogonalLoop=1;jettySize=auto;html=1;exitX=1;exitY=0.5;exitDx=0;exitDy=0;fontFamily=Times New Roman;fontSize=13;" parent="1" source="oPkie0pvq-3ybUJgwecn-111" edge="1">
          <mxGeometry relative="1" as="geometry">
            <mxPoint x="680" y="339.8571428571429" as="targetPoint" />
          </mxGeometry>
        </mxCell>
        <mxCell id="oPkie0pvq-3ybUJgwecn-111" value="$${{B}}_{r,k} = {{B}_{i,k}}$$" style="rounded=0;whiteSpace=wrap;html=1;fontSize=12;fontFamily=Times New Roman;" parent="1" vertex="1">
          <mxGeometry x="570" y="326" width="90.75" height="28" as="geometry" />
        </mxCell>
        <mxCell id="oPkie0pvq-3ybUJgwecn-113" value="" style="shape=curlyBracket;whiteSpace=wrap;html=1;rounded=1;size=0.5;fontSize=16;fontFamily=Times New Roman;" parent="1" vertex="1">
          <mxGeometry x="407.75" y="340" width="22" height="40" as="geometry" />
        </mxCell>
        <mxCell id="oPkie0pvq-3ybUJgwecn-114" value="" style="endArrow=classic;html=1;fontSize=12;exitX=0.911;exitY=0.001;exitDx=0;exitDy=0;exitPerimeter=0;entryX=-0.014;entryY=0.504;entryDx=0;entryDy=0;entryPerimeter=0;fontFamily=Times New Roman;" parent="1" source="oPkie0pvq-3ybUJgwecn-113" target="oPkie0pvq-3ybUJgwecn-111" edge="1">
          <mxGeometry width="50" height="50" relative="1" as="geometry">
            <mxPoint x="473.88" y="334" as="sourcePoint" />
            <mxPoint x="523.88" y="284" as="targetPoint" />
          </mxGeometry>
        </mxCell>
        <mxCell id="oPkie0pvq-3ybUJgwecn-115" value="" style="endArrow=classic;html=1;fontSize=12;fontFamily=Times New Roman;" parent="1" target="oPkie0pvq-3ybUJgwecn-94" edge="1">
          <mxGeometry width="50" height="50" relative="1" as="geometry">
            <mxPoint x="430.13" y="380" as="sourcePoint" />
            <mxPoint x="474.6300000000001" y="380" as="targetPoint" />
          </mxGeometry>
        </mxCell>
        <mxCell id="oPkie0pvq-3ybUJgwecn-116" value="&lt;p style=&quot;font-size: 12px&quot;&gt;&lt;font style=&quot;font-size: 12px ; line-height: 320%&quot;&gt;Other&lt;/font&gt;&lt;/p&gt;" style="text;html=1;strokeColor=none;fillColor=none;align=center;verticalAlign=middle;whiteSpace=wrap;rounded=0;fontSize=12;horizontal=1;fontFamily=Times New Roman;" parent="1" vertex="1">
          <mxGeometry x="429.75" y="360" width="44" height="20" as="geometry" />
        </mxCell>
        <mxCell id="oPkie0pvq-3ybUJgwecn-156" style="edgeStyle=orthogonalEdgeStyle;rounded=0;orthogonalLoop=1;jettySize=auto;html=1;fontFamily=Times New Roman;fontSize=13;" parent="1" source="oPkie0pvq-3ybUJgwecn-117" edge="1">
          <mxGeometry relative="1" as="geometry">
            <mxPoint x="680" y="469" as="targetPoint" />
          </mxGeometry>
        </mxCell>
        <mxCell id="oPkie0pvq-3ybUJgwecn-117" value="$${{B}}_{r,k} =&amp;nbsp; 0.5 \otimes ({{B}}_{o,k} \oplus {{B}}_{v,k} ) $$" style="rounded=0;whiteSpace=wrap;html=1;fontSize=12;fontFamily=Times New Roman;" parent="1" vertex="1">
          <mxGeometry x="504.62" y="455" width="155.5" height="28" as="geometry" />
        </mxCell>
        <mxCell id="oPkie0pvq-3ybUJgwecn-118" value="&lt;p style=&quot;font-size: 12px;&quot;&gt;&lt;font style=&quot;font-size: 12px; line-height: 320%;&quot;&gt;Leaving screen&lt;/font&gt;&lt;/p&gt;" style="text;html=1;strokeColor=none;fillColor=none;align=center;verticalAlign=middle;whiteSpace=wrap;rounded=0;fontSize=12;horizontal=1;fontFamily=Times New Roman;" parent="1" vertex="1">
          <mxGeometry x="422.5" y="408" width="100" height="20" as="geometry" />
        </mxCell>
        <mxCell id="oPkie0pvq-3ybUJgwecn-157" style="edgeStyle=orthogonalEdgeStyle;rounded=0;orthogonalLoop=1;jettySize=auto;html=1;exitX=1;exitY=0.5;exitDx=0;exitDy=0;fontFamily=Times New Roman;fontSize=13;" parent="1" source="oPkie0pvq-3ybUJgwecn-119" edge="1">
          <mxGeometry relative="1" as="geometry">
            <mxPoint x="680" y="427.8571428571429" as="targetPoint" />
          </mxGeometry>
        </mxCell>
        <mxCell id="oPkie0pvq-3ybUJgwecn-119" value="$${{B}}_{r,k} = {{B}_{i,k}}$$" style="rounded=0;whiteSpace=wrap;html=1;fontSize=12;fontFamily=Times New Roman;" parent="1" vertex="1">
          <mxGeometry x="569.75" y="414" width="90.62" height="28" as="geometry" />
        </mxCell>
        <mxCell id="oPkie0pvq-3ybUJgwecn-120" value="" style="shape=curlyBracket;whiteSpace=wrap;html=1;rounded=1;size=0.5;fontSize=16;fontFamily=Times New Roman;" parent="1" vertex="1">
          <mxGeometry x="407.5" y="428" width="22" height="40" as="geometry" />
        </mxCell>
        <mxCell id="oPkie0pvq-3ybUJgwecn-121" value="" style="endArrow=classic;html=1;fontSize=12;exitX=0.911;exitY=0.001;exitDx=0;exitDy=0;exitPerimeter=0;entryX=-0.014;entryY=0.504;entryDx=0;entryDy=0;entryPerimeter=0;fontFamily=Times New Roman;" parent="1" source="oPkie0pvq-3ybUJgwecn-120" target="oPkie0pvq-3ybUJgwecn-119" edge="1">
          <mxGeometry width="50" height="50" relative="1" as="geometry">
            <mxPoint x="473.5" y="422" as="sourcePoint" />
            <mxPoint x="523.5" y="372" as="targetPoint" />
          </mxGeometry>
        </mxCell>
        <mxCell id="oPkie0pvq-3ybUJgwecn-122" value="" style="endArrow=classic;html=1;fontSize=12;fontFamily=Times New Roman;" parent="1" target="oPkie0pvq-3ybUJgwecn-117" edge="1">
          <mxGeometry width="50" height="50" relative="1" as="geometry">
            <mxPoint x="429.7500000000001" y="468" as="sourcePoint" />
            <mxPoint x="474.2500000000001" y="468" as="targetPoint" />
          </mxGeometry>
        </mxCell>
        <mxCell id="oPkie0pvq-3ybUJgwecn-123" value="&lt;p style=&quot;font-size: 12px&quot;&gt;&lt;font style=&quot;font-size: 12px ; line-height: 320%&quot;&gt;Other&lt;/font&gt;&lt;/p&gt;" style="text;html=1;strokeColor=none;fillColor=none;align=center;verticalAlign=middle;whiteSpace=wrap;rounded=0;fontSize=12;horizontal=1;fontFamily=Times New Roman;" parent="1" vertex="1">
          <mxGeometry x="429.5" y="448" width="44" height="20" as="geometry" />
        </mxCell>
        <mxCell id="oPkie0pvq-3ybUJgwecn-155" style="edgeStyle=orthogonalEdgeStyle;rounded=0;orthogonalLoop=1;jettySize=auto;html=1;entryX=0.997;entryY=0.414;entryDx=0;entryDy=0;entryPerimeter=0;fontFamily=Times New Roman;fontSize=13;" parent="1" source="oPkie0pvq-3ybUJgwecn-140" target="oPkie0pvq-3ybUJgwecn-14" edge="1">
          <mxGeometry relative="1" as="geometry">
            <Array as="points">
              <mxPoint x="680" y="535" />
              <mxPoint x="680" y="191" />
            </Array>
          </mxGeometry>
        </mxCell>
        <mxCell id="oPkie0pvq-3ybUJgwecn-140" value="$${B}_{r,k} = \left({R}_{ie,k} \otimes {{B}_{i,k}} \right) \oplus \left(\left(1-&amp;nbsp; {R}_{ie,k} \right) \otimes {{B}}_{v,k} \right)$$" style="rounded=0;whiteSpace=wrap;html=1;fontSize=12;fontFamily=Times New Roman;" parent="1" vertex="1">
          <mxGeometry x="421.25" y="521" width="238" height="28" as="geometry" />
        </mxCell>
        <mxCell id="oPkie0pvq-3ybUJgwecn-144" value="Case 3" style="rhombus;whiteSpace=wrap;html=1;fontSize=16;fontFamily=Times New Roman;" parent="1" vertex="1">
          <mxGeometry x="320.5" y="428" width="87" height="40" as="geometry" />
        </mxCell>
        <mxCell id="oPkie0pvq-3ybUJgwecn-145" value="Case 2" style="rhombus;whiteSpace=wrap;html=1;fontSize=16;fontFamily=Times New Roman;" parent="1" vertex="1">
          <mxGeometry x="320.75" y="340" width="87" height="40" as="geometry" />
        </mxCell>
        <mxCell id="oPkie0pvq-3ybUJgwecn-151" style="edgeStyle=orthogonalEdgeStyle;rounded=0;orthogonalLoop=1;jettySize=auto;html=1;exitX=1;exitY=0.5;exitDx=0;exitDy=0;entryX=0;entryY=0.5;entryDx=0;entryDy=0;fontFamily=Times New Roman;fontSize=13;" parent="1" source="oPkie0pvq-3ybUJgwecn-146" target="oPkie0pvq-3ybUJgwecn-149" edge="1">
          <mxGeometry relative="1" as="geometry" />
        </mxCell>
        <mxCell id="oPkie0pvq-3ybUJgwecn-152" style="edgeStyle=orthogonalEdgeStyle;rounded=0;orthogonalLoop=1;jettySize=auto;html=1;exitX=0.5;exitY=1;exitDx=0;exitDy=0;entryX=0.5;entryY=0;entryDx=0;entryDy=0;fontFamily=Times New Roman;fontSize=13;" parent="1" source="oPkie0pvq-3ybUJgwecn-146" target="oPkie0pvq-3ybUJgwecn-17" edge="1">
          <mxGeometry relative="1" as="geometry">
            <Array as="points">
              <mxPoint x="364" y="240" />
              <mxPoint x="255" y="240" />
            </Array>
          </mxGeometry>
        </mxCell>
        <mxCell id="oPkie0pvq-3ybUJgwecn-146" value="&lt;font style=&quot;font-size: 12px&quot;&gt;$${R}_{ie,k} \geq T_{ie} ? $$&lt;/font&gt;" style="rhombus;whiteSpace=wrap;html=1;fontSize=14;fontFamily=Times New Roman;" parent="1" vertex="1">
          <mxGeometry x="320.75" y="170" width="87" height="50" as="geometry" />
        </mxCell>
        <mxCell id="oPkie0pvq-3ybUJgwecn-149" value="$${{B}}_{r,k} = {{B}_{i,k}}$$" style="rounded=0;whiteSpace=wrap;html=1;fontSize=12;fontFamily=Times New Roman;" parent="1" vertex="1">
          <mxGeometry x="450" y="181" width="85.5" height="28" as="geometry" />
        </mxCell>
        <mxCell id="SFmKYCMGwNg8XkryIsRu-79" style="edgeStyle=orthogonalEdgeStyle;rounded=0;orthogonalLoop=1;jettySize=auto;html=1;exitX=1;exitY=0.5;exitDx=0;exitDy=0;entryX=0;entryY=0.5;entryDx=0;entryDy=0;fontFamily=Times New Roman;fontSize=10;" edge="1" parent="1" source="SFmKYCMGwNg8XkryIsRu-2" target="SFmKYCMGwNg8XkryIsRu-54">
          <mxGeometry relative="1" as="geometry" />
        </mxCell>
        <mxCell id="SFmKYCMGwNg8XkryIsRu-2" value="$$({{B}_{i,k}},{{B}}_{e,k}^{-})$$" style="rounded=0;whiteSpace=wrap;html=1;fontSize=12;fontFamily=Times New Roman;" vertex="1" parent="1">
          <mxGeometry x="80" y="640" width="80" height="30" as="geometry" />
        </mxCell>
        <mxCell id="SFmKYCMGwNg8XkryIsRu-3" value="A Match" style="text;html=1;strokeColor=none;fillColor=none;align=center;verticalAlign=middle;whiteSpace=wrap;rounded=0;fontSize=14;fontFamily=Times New Roman;" vertex="1" parent="1">
          <mxGeometry x="82.5" y="671.5" width="75" height="20" as="geometry" />
        </mxCell>
        <mxCell id="SFmKYCMGwNg8XkryIsRu-5" value="Yes" style="text;html=1;strokeColor=none;fillColor=none;align=center;verticalAlign=middle;whiteSpace=wrap;rounded=0;fontSize=14;fontFamily=Times New Roman;" vertex="1" parent="1">
          <mxGeometry x="279.25" y="630" width="40" height="20" as="geometry" />
        </mxCell>
        <mxCell id="SFmKYCMGwNg8XkryIsRu-6" value="&lt;b&gt;Update Trackers&lt;/b&gt;" style="rounded=1;whiteSpace=wrap;html=1;fontSize=16;fontFamily=Times New Roman;" vertex="1" parent="1">
          <mxGeometry x="447.38" y="630" width="90" height="50" as="geometry" />
        </mxCell>
        <mxCell id="SFmKYCMGwNg8XkryIsRu-7" value="&lt;b&gt;Refinement&lt;/b&gt;" style="rounded=1;whiteSpace=wrap;html=1;fontSize=16;fontFamily=Times New Roman;horizontal=0;" vertex="1" parent="1">
          <mxGeometry x="100" y="805" width="40" height="100" as="geometry" />
        </mxCell>
        <mxCell id="SFmKYCMGwNg8XkryIsRu-8" value="No" style="text;html=1;strokeColor=none;fillColor=none;align=center;verticalAlign=middle;whiteSpace=wrap;rounded=0;fontSize=14;fontFamily=Times New Roman;" vertex="1" parent="1">
          <mxGeometry x="192" y="671.5" width="40" height="20" as="geometry" />
        </mxCell>
        <mxCell id="SFmKYCMGwNg8XkryIsRu-132" style="edgeStyle=orthogonalEdgeStyle;rounded=0;orthogonalLoop=1;jettySize=auto;html=1;exitX=1;exitY=0.5;exitDx=0;exitDy=0;fontFamily=Times New Roman;fontSize=12;" edge="1" parent="1" source="SFmKYCMGwNg8XkryIsRu-25">
          <mxGeometry relative="1" as="geometry">
            <mxPoint x="580" y="739.8571428571429" as="targetPoint" />
          </mxGeometry>
        </mxCell>
        <mxCell id="SFmKYCMGwNg8XkryIsRu-25" value="$${{B}}_{r,k}= \frac{1}{2} \otimes&amp;nbsp; ({{B}}_{o,k} \oplus {{B}}_{e,k}^{-} )$$" style="rounded=0;whiteSpace=wrap;html=1;fontSize=12;fontFamily=Times New Roman;" vertex="1" parent="1">
          <mxGeometry x="415" y="722" width="145" height="36" as="geometry" />
        </mxCell>
        <mxCell id="SFmKYCMGwNg8XkryIsRu-133" style="edgeStyle=orthogonalEdgeStyle;rounded=0;orthogonalLoop=1;jettySize=auto;html=1;exitX=1;exitY=0.5;exitDx=0;exitDy=0;fontFamily=Times New Roman;fontSize=12;" edge="1" parent="1" source="SFmKYCMGwNg8XkryIsRu-31">
          <mxGeometry relative="1" as="geometry">
            <mxPoint x="580" y="839.8571428571429" as="targetPoint" />
          </mxGeometry>
        </mxCell>
        <mxCell id="SFmKYCMGwNg8XkryIsRu-31" value="$${{B}}_{r,k} =&amp;nbsp; {{B}}_{t,k-1}$$" style="rounded=0;whiteSpace=wrap;html=1;fontSize=12;fontFamily=Times New Roman;" vertex="1" parent="1">
          <mxGeometry x="447.38" y="826" width="90" height="28" as="geometry" />
        </mxCell>
        <mxCell id="SFmKYCMGwNg8XkryIsRu-134" style="edgeStyle=orthogonalEdgeStyle;rounded=0;orthogonalLoop=1;jettySize=auto;html=1;exitX=1;exitY=0.5;exitDx=0;exitDy=0;fontFamily=Times New Roman;fontSize=12;" edge="1" parent="1" source="SFmKYCMGwNg8XkryIsRu-40">
          <mxGeometry relative="1" as="geometry">
            <mxPoint x="580" y="931.2857142857142" as="targetPoint" />
          </mxGeometry>
        </mxCell>
        <mxCell id="SFmKYCMGwNg8XkryIsRu-40" value="$${{B}}_{r,k} =&amp;nbsp; \frac{1}{2} \otimes ({{B}}_{o,k} \oplus {{B}}_{v,k} ) $$" style="rounded=0;whiteSpace=wrap;html=1;fontSize=12;fontFamily=Times New Roman;" vertex="1" parent="1">
          <mxGeometry x="414.25" y="913.5" width="145.75" height="36" as="geometry" />
        </mxCell>
        <mxCell id="SFmKYCMGwNg8XkryIsRu-131" style="edgeStyle=orthogonalEdgeStyle;rounded=0;orthogonalLoop=1;jettySize=auto;html=1;exitX=1;exitY=0.5;exitDx=0;exitDy=0;entryX=1;entryY=0.5;entryDx=0;entryDy=0;fontFamily=Times New Roman;fontSize=12;" edge="1" parent="1" source="SFmKYCMGwNg8XkryIsRu-49" target="SFmKYCMGwNg8XkryIsRu-6">
          <mxGeometry relative="1" as="geometry" />
        </mxCell>
        <mxCell id="SFmKYCMGwNg8XkryIsRu-49" value="$${B}_{r,k} = \left({R}_{ie,k} \otimes {{B}_{i,k}} \right) \oplus \left(\left(1-&amp;nbsp; {R}_{ie,k} \right) \otimes {{B}}_{v,k} \right)$$" style="rounded=0;whiteSpace=wrap;html=1;fontSize=12;fontFamily=Times New Roman;" vertex="1" parent="1">
          <mxGeometry x="321.25" y="982" width="238" height="28" as="geometry" />
        </mxCell>
        <mxCell id="SFmKYCMGwNg8XkryIsRu-87" style="edgeStyle=orthogonalEdgeStyle;rounded=0;orthogonalLoop=1;jettySize=auto;html=1;exitX=0.5;exitY=1;exitDx=0;exitDy=0;entryX=0.5;entryY=0;entryDx=0;entryDy=0;fontFamily=Times New Roman;fontSize=10;" edge="1" parent="1" source="SFmKYCMGwNg8XkryIsRu-54" target="SFmKYCMGwNg8XkryIsRu-57">
          <mxGeometry relative="1" as="geometry" />
        </mxCell>
        <mxCell id="SFmKYCMGwNg8XkryIsRu-115" style="edgeStyle=orthogonalEdgeStyle;rounded=0;orthogonalLoop=1;jettySize=auto;html=1;exitX=1;exitY=0.5;exitDx=0;exitDy=0;entryX=0;entryY=0.5;entryDx=0;entryDy=0;fontFamily=Times New Roman;fontSize=12;" edge="1" parent="1" source="SFmKYCMGwNg8XkryIsRu-54" target="SFmKYCMGwNg8XkryIsRu-55">
          <mxGeometry relative="1" as="geometry" />
        </mxCell>
        <mxCell id="SFmKYCMGwNg8XkryIsRu-54" value="&lt;font style=&quot;font-size: 12px&quot;&gt;$${R}_{ie,k} \geq T_{ie} ? $$&lt;/font&gt;" style="rhombus;whiteSpace=wrap;html=1;fontSize=14;fontFamily=Times New Roman;" vertex="1" parent="1">
          <mxGeometry x="180" y="630" width="100" height="50" as="geometry" />
        </mxCell>
        <mxCell id="SFmKYCMGwNg8XkryIsRu-119" style="edgeStyle=orthogonalEdgeStyle;rounded=0;orthogonalLoop=1;jettySize=auto;html=1;exitX=1;exitY=0.5;exitDx=0;exitDy=0;entryX=0;entryY=0.5;entryDx=0;entryDy=0;fontFamily=Times New Roman;fontSize=12;" edge="1" parent="1" source="SFmKYCMGwNg8XkryIsRu-55" target="SFmKYCMGwNg8XkryIsRu-6">
          <mxGeometry relative="1" as="geometry" />
        </mxCell>
        <mxCell id="SFmKYCMGwNg8XkryIsRu-55" value="$${{B}}_{r,k} = {{B}_{i,k}}$$" style="rounded=0;whiteSpace=wrap;html=1;fontSize=12;fontFamily=Times New Roman;" vertex="1" parent="1">
          <mxGeometry x="321.25" y="641" width="68.5" height="28" as="geometry" />
        </mxCell>
        <mxCell id="SFmKYCMGwNg8XkryIsRu-59" value="" style="group;fontFamily=Times New Roman;" vertex="1" connectable="0" parent="1">
          <mxGeometry x="165" y="700" width="130" height="80" as="geometry" />
        </mxCell>
        <mxCell id="SFmKYCMGwNg8XkryIsRu-57" value="" style="rhombus;whiteSpace=wrap;html=1;fontSize=10;fontFamily=Times New Roman;" vertex="1" parent="SFmKYCMGwNg8XkryIsRu-59">
          <mxGeometry width="130" height="80" as="geometry" />
        </mxCell>
        <mxCell id="SFmKYCMGwNg8XkryIsRu-11" value="$$T_{i,e} \leq {R}_{e,k}&amp;nbsp; &amp;nbsp; &amp;lt; T_{a}&#39;$$" style="text;html=1;strokeColor=none;fillColor=none;align=center;verticalAlign=middle;whiteSpace=wrap;rounded=0;fontSize=10;fontFamily=Times New Roman;" vertex="1" parent="SFmKYCMGwNg8XkryIsRu-59">
          <mxGeometry x="6.75" y="36.5" width="118.5" height="20" as="geometry" />
        </mxCell>
        <mxCell id="SFmKYCMGwNg8XkryIsRu-12" value="&lt;span style=&quot;color: rgb(0, 0, 0); font-size: 10px; font-style: normal; font-weight: 400; letter-spacing: normal; text-align: center; text-indent: 0px; text-transform: none; word-spacing: 0px; background-color: rgb(248, 249, 250); display: inline; float: none;&quot;&gt;$$T_{a}&amp;lt;{R}_{m,k}\leq 1$$&lt;/span&gt;" style="text;html=1;strokeColor=none;fillColor=none;align=center;verticalAlign=middle;whiteSpace=wrap;rounded=0;fontSize=10;fontFamily=Times New Roman;" vertex="1" parent="SFmKYCMGwNg8XkryIsRu-59">
          <mxGeometry x="16" y="21.5" width="100" height="20" as="geometry" />
        </mxCell>
        <mxCell id="SFmKYCMGwNg8XkryIsRu-56" value="Case 1:" style="text;html=1;strokeColor=none;fillColor=none;align=center;verticalAlign=middle;whiteSpace=wrap;rounded=0;fontSize=10;fontFamily=Times New Roman;fontStyle=1" vertex="1" parent="SFmKYCMGwNg8XkryIsRu-59">
          <mxGeometry x="36" y="4.5" width="60" height="20" as="geometry" />
        </mxCell>
        <mxCell id="SFmKYCMGwNg8XkryIsRu-58" value="?" style="text;html=1;strokeColor=none;fillColor=none;align=center;verticalAlign=middle;whiteSpace=wrap;rounded=0;fontSize=12;fontFamily=Times New Roman;fontStyle=1" vertex="1" parent="SFmKYCMGwNg8XkryIsRu-59">
          <mxGeometry x="45" y="54" width="40" height="20" as="geometry" />
        </mxCell>
        <mxCell id="SFmKYCMGwNg8XkryIsRu-60" value="" style="group;fontFamily=Times New Roman;" vertex="1" connectable="0" parent="1">
          <mxGeometry x="165" y="800" width="130" height="80" as="geometry" />
        </mxCell>
        <mxCell id="SFmKYCMGwNg8XkryIsRu-61" value="" style="rhombus;whiteSpace=wrap;html=1;fontSize=10;fontFamily=Times New Roman;" vertex="1" parent="SFmKYCMGwNg8XkryIsRu-60">
          <mxGeometry width="130" height="80" as="geometry" />
        </mxCell>
        <mxCell id="SFmKYCMGwNg8XkryIsRu-64" value="Case 2:" style="text;html=1;strokeColor=none;fillColor=none;align=center;verticalAlign=middle;whiteSpace=wrap;rounded=0;fontSize=10;fontFamily=Times New Roman;fontStyle=1" vertex="1" parent="SFmKYCMGwNg8XkryIsRu-60">
          <mxGeometry x="36" y="4.5" width="60" height="20" as="geometry" />
        </mxCell>
        <mxCell id="SFmKYCMGwNg8XkryIsRu-65" value="?" style="text;html=1;strokeColor=none;fillColor=none;align=center;verticalAlign=middle;whiteSpace=wrap;rounded=0;fontSize=12;fontFamily=Times New Roman;fontStyle=1" vertex="1" parent="SFmKYCMGwNg8XkryIsRu-60">
          <mxGeometry x="45" y="54" width="40" height="20" as="geometry" />
        </mxCell>
        <mxCell id="SFmKYCMGwNg8XkryIsRu-13" value="$$0 \leq {R}_{e,k} &amp;lt; T_{i,e}$$" style="text;html=1;strokeColor=none;fillColor=none;align=center;verticalAlign=middle;whiteSpace=wrap;rounded=0;fontSize=10;fontFamily=Times New Roman;" vertex="1" parent="SFmKYCMGwNg8XkryIsRu-60">
          <mxGeometry x="16" y="38" width="100" height="20" as="geometry" />
        </mxCell>
        <mxCell id="SFmKYCMGwNg8XkryIsRu-14" value="&#xa;&#xa;&lt;span style=&quot;color: rgb(0, 0, 0); font-size: 10px; font-style: normal; font-weight: 400; letter-spacing: normal; text-align: center; text-indent: 0px; text-transform: none; word-spacing: 0px; background-color: rgb(248, 249, 250); display: inline; float: none;&quot;&gt;$$T_{a}&amp;lt;{R}_{m,k} \leq 1$$&lt;/span&gt;&#xa;&#xa;" style="text;html=1;strokeColor=none;fillColor=none;align=center;verticalAlign=middle;whiteSpace=wrap;rounded=0;fontSize=10;fontFamily=Times New Roman;" vertex="1" parent="SFmKYCMGwNg8XkryIsRu-60">
          <mxGeometry x="15" y="22" width="100" height="20" as="geometry" />
        </mxCell>
        <mxCell id="SFmKYCMGwNg8XkryIsRu-66" value="" style="group;fontFamily=Times New Roman;fontSize=14;" vertex="1" connectable="0" parent="1">
          <mxGeometry x="165" y="899" width="155" height="80" as="geometry" />
        </mxCell>
        <mxCell id="SFmKYCMGwNg8XkryIsRu-67" value="" style="rhombus;whiteSpace=wrap;html=1;fontSize=10;fontFamily=Times New Roman;" vertex="1" parent="SFmKYCMGwNg8XkryIsRu-66">
          <mxGeometry width="130" height="80" as="geometry" />
        </mxCell>
        <mxCell id="SFmKYCMGwNg8XkryIsRu-70" value="Case 3:" style="text;html=1;strokeColor=none;fillColor=none;align=center;verticalAlign=middle;whiteSpace=wrap;rounded=0;fontSize=10;fontFamily=Times New Roman;fontStyle=1" vertex="1" parent="SFmKYCMGwNg8XkryIsRu-66">
          <mxGeometry x="36" y="4.5" width="60" height="20" as="geometry" />
        </mxCell>
        <mxCell id="SFmKYCMGwNg8XkryIsRu-71" value="?" style="text;html=1;strokeColor=none;fillColor=none;align=center;verticalAlign=middle;whiteSpace=wrap;rounded=0;fontSize=10;fontFamily=Times New Roman;fontStyle=1" vertex="1" parent="SFmKYCMGwNg8XkryIsRu-66">
          <mxGeometry x="45" y="54" width="40" height="20" as="geometry" />
        </mxCell>
        <mxCell id="SFmKYCMGwNg8XkryIsRu-15" value="$$T_{a}&amp;lt;{R}_{e,k} \leq 1$$" style="text;html=1;strokeColor=none;fillColor=none;align=center;verticalAlign=middle;whiteSpace=wrap;rounded=0;fontSize=10;fontFamily=Times New Roman;" vertex="1" parent="SFmKYCMGwNg8XkryIsRu-66">
          <mxGeometry x="1" y="40.5" width="130" height="21" as="geometry" />
        </mxCell>
        <mxCell id="SFmKYCMGwNg8XkryIsRu-16" value="$$T_{i,e} \leq {R}_{m,k} &amp;lt; T_{a}^{\prime}$$" style="text;html=1;strokeColor=none;fillColor=none;align=center;verticalAlign=middle;whiteSpace=wrap;rounded=0;fontSize=10;fontFamily=Times New Roman;" vertex="1" parent="SFmKYCMGwNg8XkryIsRu-66">
          <mxGeometry x="5.5" y="23.5" width="119" height="22" as="geometry" />
        </mxCell>
        <mxCell id="SFmKYCMGwNg8XkryIsRu-113" value="Yes" style="text;html=1;strokeColor=none;fillColor=none;align=center;verticalAlign=middle;whiteSpace=wrap;rounded=0;fontSize=16;fontFamily=Times New Roman;" vertex="1" parent="SFmKYCMGwNg8XkryIsRu-66">
          <mxGeometry x="115" y="11" width="40" height="20" as="geometry" />
        </mxCell>
        <mxCell id="SFmKYCMGwNg8XkryIsRu-92" style="edgeStyle=orthogonalEdgeStyle;rounded=0;orthogonalLoop=1;jettySize=auto;html=1;exitX=0.5;exitY=1;exitDx=0;exitDy=0;entryX=0.5;entryY=0;entryDx=0;entryDy=0;fontFamily=Times New Roman;fontSize=10;" edge="1" parent="1" source="SFmKYCMGwNg8XkryIsRu-57" target="SFmKYCMGwNg8XkryIsRu-61">
          <mxGeometry relative="1" as="geometry" />
        </mxCell>
        <mxCell id="SFmKYCMGwNg8XkryIsRu-93" style="edgeStyle=orthogonalEdgeStyle;rounded=0;orthogonalLoop=1;jettySize=auto;html=1;exitX=0.5;exitY=1;exitDx=0;exitDy=0;entryX=0.5;entryY=0;entryDx=0;entryDy=0;fontFamily=Times New Roman;fontSize=10;" edge="1" parent="1" source="SFmKYCMGwNg8XkryIsRu-61" target="SFmKYCMGwNg8XkryIsRu-67">
          <mxGeometry relative="1" as="geometry" />
        </mxCell>
        <mxCell id="SFmKYCMGwNg8XkryIsRu-94" value="" style="shape=curlyBracket;whiteSpace=wrap;html=1;rounded=1;fontFamily=Times New Roman;fontSize=10;" vertex="1" parent="1">
          <mxGeometry x="140" y="700" width="20" height="310" as="geometry" />
        </mxCell>
        <mxCell id="SFmKYCMGwNg8XkryIsRu-101" style="edgeStyle=orthogonalEdgeStyle;rounded=0;orthogonalLoop=1;jettySize=auto;html=1;exitX=1;exitY=0.5;exitDx=0;exitDy=0;entryX=0;entryY=0.151;entryDx=0;entryDy=0;entryPerimeter=0;fontFamily=Times New Roman;fontSize=10;" edge="1" parent="1" source="SFmKYCMGwNg8XkryIsRu-57">
          <mxGeometry relative="1" as="geometry">
            <mxPoint x="320" y="740.02" as="targetPoint" />
          </mxGeometry>
        </mxCell>
        <mxCell id="SFmKYCMGwNg8XkryIsRu-116" style="edgeStyle=orthogonalEdgeStyle;rounded=0;orthogonalLoop=1;jettySize=auto;html=1;exitX=0.5;exitY=0;exitDx=0;exitDy=0;entryX=0.5;entryY=1;entryDx=0;entryDy=0;fontFamily=Times New Roman;fontSize=12;" edge="1" parent="1" source="SFmKYCMGwNg8XkryIsRu-104" target="SFmKYCMGwNg8XkryIsRu-55">
          <mxGeometry relative="1" as="geometry" />
        </mxCell>
        <mxCell id="SFmKYCMGwNg8XkryIsRu-104" value="&lt;b&gt;Is leaving out of screen or doing Z-axis motion ?&lt;/b&gt;" style="shape=ext;double=1;rounded=1;whiteSpace=wrap;html=1;fontFamily=Times New Roman;fontSize=12;horizontal=0;" vertex="1" parent="1">
          <mxGeometry x="320.75" y="700" width="69.25" height="260" as="geometry" />
        </mxCell>
        <mxCell id="SFmKYCMGwNg8XkryIsRu-106" style="edgeStyle=orthogonalEdgeStyle;rounded=0;orthogonalLoop=1;jettySize=auto;html=1;exitX=1;exitY=0.5;exitDx=0;exitDy=0;fontFamily=Times New Roman;fontSize=12;" edge="1" parent="1" source="SFmKYCMGwNg8XkryIsRu-61">
          <mxGeometry relative="1" as="geometry">
            <mxPoint x="320" y="839.9611650485436" as="targetPoint" />
          </mxGeometry>
        </mxCell>
        <mxCell id="SFmKYCMGwNg8XkryIsRu-107" style="edgeStyle=orthogonalEdgeStyle;rounded=0;orthogonalLoop=1;jettySize=auto;html=1;exitX=1;exitY=0.5;exitDx=0;exitDy=0;fontFamily=Times New Roman;fontSize=12;" edge="1" parent="1" source="SFmKYCMGwNg8XkryIsRu-67">
          <mxGeometry relative="1" as="geometry">
            <mxPoint x="320" y="938.9902912621358" as="targetPoint" />
          </mxGeometry>
        </mxCell>
        <mxCell id="SFmKYCMGwNg8XkryIsRu-108" value="No" style="text;html=1;strokeColor=none;fillColor=none;align=center;verticalAlign=middle;whiteSpace=wrap;rounded=0;fontSize=14;fontFamily=Times New Roman;" vertex="1" parent="1">
          <mxGeometry x="195" y="770" width="35" height="20" as="geometry" />
        </mxCell>
        <mxCell id="SFmKYCMGwNg8XkryIsRu-109" value="No" style="text;html=1;strokeColor=none;fillColor=none;align=center;verticalAlign=middle;whiteSpace=wrap;rounded=0;fontSize=14;fontFamily=Times New Roman;" vertex="1" parent="1">
          <mxGeometry x="195" y="870" width="35" height="20" as="geometry" />
        </mxCell>
        <mxCell id="SFmKYCMGwNg8XkryIsRu-123" style="edgeStyle=orthogonalEdgeStyle;rounded=0;orthogonalLoop=1;jettySize=auto;html=1;exitX=1;exitY=0.5;exitDx=0;exitDy=0;entryX=0;entryY=0.5;entryDx=0;entryDy=0;fontFamily=Times New Roman;fontSize=12;" edge="1" parent="1" source="SFmKYCMGwNg8XkryIsRu-110" target="SFmKYCMGwNg8XkryIsRu-49">
          <mxGeometry relative="1" as="geometry">
            <Array as="points">
              <mxPoint x="230" y="996" />
            </Array>
          </mxGeometry>
        </mxCell>
        <mxCell id="SFmKYCMGwNg8XkryIsRu-110" value="No" style="text;html=1;strokeColor=none;fillColor=none;align=center;verticalAlign=middle;whiteSpace=wrap;rounded=0;fontSize=14;fontFamily=Times New Roman;" vertex="1" parent="1">
          <mxGeometry x="195" y="969" width="35" height="20" as="geometry" />
        </mxCell>
        <mxCell id="SFmKYCMGwNg8XkryIsRu-111" value="Yes" style="text;html=1;strokeColor=none;fillColor=none;align=center;verticalAlign=middle;whiteSpace=wrap;rounded=0;fontSize=14;fontFamily=Times New Roman;" vertex="1" parent="1">
          <mxGeometry x="279.25" y="710" width="40" height="20" as="geometry" />
        </mxCell>
        <mxCell id="SFmKYCMGwNg8XkryIsRu-112" value="Yes" style="text;html=1;strokeColor=none;fillColor=none;align=center;verticalAlign=middle;whiteSpace=wrap;rounded=0;fontSize=14;fontFamily=Times New Roman;" vertex="1" parent="1">
          <mxGeometry x="280.75" y="810" width="40" height="20" as="geometry" />
        </mxCell>
        <mxCell id="SFmKYCMGwNg8XkryIsRu-117" value="No" style="text;html=1;strokeColor=none;fillColor=none;align=center;verticalAlign=middle;whiteSpace=wrap;rounded=0;fontSize=12;fontFamily=Times New Roman;" vertex="1" parent="1">
          <mxGeometry x="395" y="722" width="18" height="14" as="geometry" />
        </mxCell>
        <mxCell id="SFmKYCMGwNg8XkryIsRu-118" value="Yes" style="text;html=1;strokeColor=none;fillColor=none;align=center;verticalAlign=middle;whiteSpace=wrap;rounded=0;fontSize=12;fontFamily=Times New Roman;" vertex="1" parent="1">
          <mxGeometry x="355" y="678" width="40" height="20" as="geometry" />
        </mxCell>
        <mxCell id="SFmKYCMGwNg8XkryIsRu-124" value="" style="endArrow=classic;html=1;fontFamily=Times New Roman;fontSize=12;exitX=1;exitY=0.154;exitDx=0;exitDy=0;exitPerimeter=0;" edge="1" parent="1" source="SFmKYCMGwNg8XkryIsRu-104" target="SFmKYCMGwNg8XkryIsRu-25">
          <mxGeometry width="50" height="50" relative="1" as="geometry">
            <mxPoint x="400" y="740" as="sourcePoint" />
            <mxPoint x="420" y="730" as="targetPoint" />
          </mxGeometry>
        </mxCell>
        <mxCell id="SFmKYCMGwNg8XkryIsRu-125" value="" style="endArrow=classic;html=1;fontFamily=Times New Roman;fontSize=12;exitX=1;exitY=0.154;exitDx=0;exitDy=0;exitPerimeter=0;" edge="1" parent="1" target="SFmKYCMGwNg8XkryIsRu-31">
          <mxGeometry width="50" height="50" relative="1" as="geometry">
            <mxPoint x="390" y="839.81" as="sourcePoint" />
            <mxPoint x="415" y="839.8002676399026" as="targetPoint" />
          </mxGeometry>
        </mxCell>
        <mxCell id="SFmKYCMGwNg8XkryIsRu-126" value="" style="endArrow=classic;html=1;fontFamily=Times New Roman;fontSize=12;exitX=1;exitY=0.154;exitDx=0;exitDy=0;exitPerimeter=0;" edge="1" parent="1">
          <mxGeometry width="50" height="50" relative="1" as="geometry">
            <mxPoint x="389.25" y="931.3" as="sourcePoint" />
            <mxPoint x="414.25" y="931.3674955595025" as="targetPoint" />
          </mxGeometry>
        </mxCell>
        <mxCell id="SFmKYCMGwNg8XkryIsRu-129" value="No" style="text;html=1;strokeColor=none;fillColor=none;align=center;verticalAlign=middle;whiteSpace=wrap;rounded=0;fontSize=12;fontFamily=Times New Roman;" vertex="1" parent="1">
          <mxGeometry x="395" y="823" width="18" height="14" as="geometry" />
        </mxCell>
        <mxCell id="SFmKYCMGwNg8XkryIsRu-130" value="No" style="text;html=1;strokeColor=none;fillColor=none;align=center;verticalAlign=middle;whiteSpace=wrap;rounded=0;fontSize=12;fontFamily=Times New Roman;" vertex="1" parent="1">
          <mxGeometry x="395" y="913.5" width="18" height="14" as="geometry" />
        </mxCell>
      </root>
    </mxGraphModel>
  </diagram>
</mxfile>
